<?xml version="1.0" encoding="UTF-8" standalone="no"?><svg xmlns="http://www.w3.org/2000/svg" xmlns:xlink="http://www.w3.org/1999/xlink" data-name="Layer 1" fill="#000000" height="173.8" preserveAspectRatio="xMidYMid meet" version="1" viewBox="0.0 0.0 173.8 173.8" width="173.8" zoomAndPan="magnify"><g id="change1_1"><path d="M255.93,156.24a86.91,86.91,0,1,0,86.94,86.89A87.07,87.07,0,0,0,255.93,156.24Zm24,160.22c-3.77.77-5.16-1.55-5.16-3.55,0-2.55.11-10.65.11-20.74,0-7-2.38-11.58-5.1-13.91,16.75-1.89,34.38-8.26,34.38-37.21a29.08,29.08,0,0,0-7.76-20.23c.77-1.89,3.43-9.6-.73-20,0,0-6.32-2.06-20.73,7.7a72.41,72.41,0,0,0-37.65,0c-14.41-9.64-20.74-7.7-20.74-7.7-4.1,10.36-1.49,18.07-.72,20a29.24,29.24,0,0,0-7.7,20.23c0,28.83,17.52,35.32,34.26,37.21-2.16,1.88-4.16,5.15-4.82,10.09-4.33,1.94-15.14,5.15-21.9-6.21-1.44-2.28-5.66-7.82-11.59-7.76-6.32.11-2.55,3.6.06,5,3.21,1.83,6.87,8.48,7.76,10.64,1.49,4.27,6.37,12.36,25.28,8.87,0,6.32.11,12.26.11,14,0,2-1.38,4.21-5.16,3.55a75.24,75.24,0,1,1,47.8,0Z" fill="#000000" fill-rule="evenodd" transform="translate(-168.99 -156.24)"/></g></svg>