<svg id="e7f39c40-0085-46c6-a680-186a893f7a87" data-name="Layer 1" xmlns="http://www.w3.org/2000/svg" width="865.76" height="682.89" viewBox="0 0 865.76 682.89"><g id="fc31a40d-3507-4bf0-9b18-46605d0ce72c" data-name="freepik--background-simple--inject-1"><path d="M833.22,501.23c17.43-131-67.13-305-154.65-376.84C520.45-5.36,389.08,19.73,286.89,66.18S170.21,267.83,99.65,338-11,502.62,96,596.61s193.49,46.23,305.31,40.26,260.31,41,340.59.17C798,608.56,825.58,559.17,833.22,501.23Z" fill="#3165D4"/><path d="M833.22,501.23c17.43-131-67.13-305-154.65-376.84C520.45-5.36,389.08,19.73,286.89,66.18S170.21,267.83,99.65,338-11,502.62,96,596.61s193.49,46.23,305.31,40.26,260.31,41,340.59.17C798,608.56,825.58,559.17,833.22,501.23Z" fill="#fff" opacity="0.8" style="isolation:isolate"/></g><g id="b5e6a109-0cb2-406d-ba1f-543b6e0728a7" data-name="freepik--Floor--inject-1"><path d="M38.36,523.35c10,24.14,27.87,48.72,55.81,73.23,107.05,94,193.48,46.22,305.31,40.25s260.31,41,340.58.17c48.77-24.78,76-65.44,87.35-113.69Z" fill="#3165D4"/><path d="M38.36,523.35c10,24.14,27.87,48.72,55.81,73.23,107.05,94,193.48,46.22,305.31,40.25s260.31,41,340.58.17c48.77-24.78,76-65.44,87.35-113.69Z" fill="#fff" opacity="0.5" style="isolation:isolate"/></g><polygon points="681.58 639.76 274.29 639.76 274.29 607.57 81.14 607.57 81.14 331.95 424.87 331.95 424.87 333.95 83.14 333.95 83.14 605.57 276.29 605.57 276.29 637.76 679.58 637.76 679.58 389.39 587.26 389.39 587.26 387.39 681.58 387.39 681.58 639.76" fill="#2f2e41"/><rect x="424.87" y="112.05" width="334.17" height="244.2" rx="3.79" fill="#e6e7e8"/><rect x="652.26" y="248.48" width="139.4" height="98.87" rx="3.16" fill="#d1d3d4"/><rect x="446.62" y="124.9" width="150.28" height="109.25" fill="#fff"/><rect x="465.4" y="190.15" width="14.83" height="44" fill="#d1d3d4"/><rect x="496.05" y="172.35" width="19.77" height="61.79" fill="#d1d3d4"/><rect x="527.69" y="159.5" width="18.78" height="74.65" fill="#d1d3d4"/><rect x="558.34" y="142.69" width="17.8" height="91.45" fill="#d1d3d4"/><rect x="619.64" y="128.09" width="122.6" height="14.6" fill="#d1d3d4"/><rect x="673.18" y="159.5" width="69.05" height="6.14" fill="#d1d3d4"/><rect x="673.18" y="172.35" width="69.05" height="6.14" fill="#d1d3d4"/><rect x="673.18" y="187.08" width="69.05" height="6.14" fill="#d1d3d4"/><circle cx="641.88" cy="178.5" r="26.26" fill="#3165D4"/><circle cx="641.88" cy="174.14" r="8.49" fill="#fff"/><path d="M631.08,190.74a15.09,15.09,0,0,0-6.5,7.51s17.3,15.23,36.1-1.43c0,0,.09-4.94-12-8.28A22.39,22.39,0,0,0,631.08,190.74Z" fill="#fff"/><circle cx="607.68" cy="274.93" r="19.33" fill="#2f2e41"/><circle cx="607.68" cy="271.72" r="6.25" fill="#fff"/><path d="M599.73,284a11.08,11.08,0,0,0-4.79,5.52s12.74,11.22,26.58-1c0,0,.07-3.65-8.8-6.1A16.43,16.43,0,0,0,599.73,284Z" fill="#fff"/><line x1="791.67" y1="281.68" x2="779.9" y2="291.78" fill="none" stroke="#fff" stroke-miterlimit="10"/><path d="M724.66,279.44c4.17,1.47,9.93,4.46,16.3,10.48,8.37,7.91,20.4,10.7,30.95,6.79" fill="none" stroke="#fff" stroke-miterlimit="10"/><path d="M680.52,310.81a13.47,13.47,0,0,0,5.69-6.39c3.69-8.4,14.61-29.73,29.33-27.08" fill="none" stroke="#fff" stroke-miterlimit="10"/><path d="M652.27,303.2a12.71,12.71,0,0,1,13.94,4.52,12.65,12.65,0,0,0,5,3.79" fill="none" stroke="#fff" stroke-miterlimit="10"/><path d="M680.58,311.49a4.7,4.7,0,0,1-9.39,0v0a4.69,4.69,0,0,1,9.33-.68A3.82,3.82,0,0,1,680.58,311.49Z" fill="none" stroke="#fff" stroke-miterlimit="10"/><path d="M724.88,278a5,5,0,0,1-.22,1.46,4.7,4.7,0,0,1-9.17-1.46,4.48,4.48,0,0,1,0-.64,4.69,4.69,0,0,1,9.34.64Z" fill="none" stroke="#fff" stroke-miterlimit="10"/><path d="M780.55,294.16a4.69,4.69,0,1,1-.65-2.38A4.69,4.69,0,0,1,780.55,294.16Z" fill="none" stroke="#fff" stroke-miterlimit="10"/><path d="M416.44,262H450a18.46,18.46,0,0,0,12.62,15.25,4.17,4.17,0,0,1,2.83,4v14.71A47.49,47.49,0,0,1,457.69,322c-5.42,8.26-13.8,17.31-25.42,19.92a36.8,36.8,0,0,1-5.91-2.56,47.43,47.43,0,0,1-25-39.67l-1-18.91a3.09,3.09,0,0,1,2.4-3.18C407,276.65,415.09,273.35,416.44,262Z" fill="#d1d3d4"/><circle cx="423.68" cy="313.3" r="6.5" fill="#2f2e41"/><circle cx="443.58" cy="313.3" r="6.5" fill="#2f2e41"/><rect x="430.19" y="312.83" width="6.89" height="0.94" fill="#2f2e41"/><path d="M411.76,302h42.37a.17.17,0,0,0,.11-.3l-2.8-2.53a4.79,4.79,0,0,0-3.18-1.21H418.63a4.76,4.76,0,0,0-2.66.81l-4.3,2.92A.17.17,0,0,0,411.76,302Z" fill="#2f2e41"/><path d="M415.23,294.16h34.85s-.93-14.88-9.42-13.69a8.44,8.44,0,0,0-7,4.64s-5.08-7.31-9.95-3.43C423.68,281.68,419.26,283.09,415.23,294.16Z" fill="#2f2e41"/><polygon points="424.87 256.6 239.42 256.6 239.42 186.08 377.12 186.08 377.12 52.07 564.22 52.07 564.22 112.05 562.22 112.05 562.22 54.07 379.12 54.07 379.12 188.08 241.42 188.08 241.42 254.6 424.87 254.6 424.87 256.6" fill="#2f2e41"/><circle cx="563.22" cy="51.83" r="7.7" fill="#3165D4"/><circle cx="376.68" cy="112.05" r="7.7" fill="#3165D4"/><circle cx="240.42" cy="255.6" r="7.7" fill="#3165D4"/><circle cx="81.47" cy="420.81" r="7.38" fill="#3165D4"/><circle cx="275.63" cy="607.55" r="7.38" fill="#3165D4"/><path d="M309.65,302.13A49.17,49.17,0,0,1,308.7,328a47.27,47.27,0,0,1-3.05,7.58,49.31,49.31,0,0,1-10.94,14.38c-.71.66-1.44,1.29-2.2,1.9a47.11,47.11,0,0,1-7.57,5,46.47,46.47,0,0,1-9.41,3.89c-.95.29-1.93.55-2.92.78a49.48,49.48,0,0,1-59.37-37,48.87,48.87,0,0,1,1.54-27.59,47.49,47.49,0,0,1,4.66-9.72,46,46,0,0,1,4.38-6,37,37,0,0,1,2.75-3,48.73,48.73,0,0,1,13.58-9.57,47.87,47.87,0,0,1,7.88-2.95c.74-.23,1.49-.42,2.25-.59A49.48,49.48,0,0,1,309.65,302.13Z" fill="#3165D4"/><circle cx="261.44" cy="313.29" r="43.55" transform="translate(-15.77 13.87) rotate(-2.95)" fill="#2f2e41"/><circle cx="261.44" cy="313.29" r="41.24" transform="translate(-54.96 55.62) rotate(-11)" fill="#3165D4"/><g opacity="0.2"><path d="M300.74,325.82A41.24,41.24,0,1,1,234.58,282a41.24,41.24,0,0,0,66.16,43.81Z"/></g><path d="M281.44,311.42a10.52,10.52,0,0,0-5.57-2.18.51.51,0,0,1-.27-.9,10.94,10.94,0,0,0,3.24-4.23,9.31,9.31,0,0,0,.48-5.94q-1.43-6-6.42-8a18.88,18.88,0,0,0-9.75-.74.49.49,0,0,1-.56-.38l-1.53-6.43a.51.51,0,0,0-.61-.38l-4.19,1a.5.5,0,0,0-.37.61l1.49,6.29a.51.51,0,0,1-.38.61l-3.2.76a.51.51,0,0,1-.61-.38l-1.49-6.28a.51.51,0,0,0-.61-.38l-4.19,1a.49.49,0,0,0-.37.61l1.49,6.28a.5.5,0,0,1-.37.61l-12.44,3a.5.5,0,0,0-.38.6l1.16,4.88a.52.52,0,0,0,.61.38l7.52-1.79a.5.5,0,0,1,.61.38l7.59,31.95a.5.5,0,0,1-.37.61l-7.53,1.78a.5.5,0,0,0-.37.61l1.16,4.88a.49.49,0,0,0,.6.37l12.44-2.95a.51.51,0,0,1,.61.38l1.52,6.39a.5.5,0,0,0,.61.37l4.18-1a.51.51,0,0,0,.38-.61L264,336.73a.51.51,0,0,1,.38-.61l3.2-.76a.5.5,0,0,1,.61.37l1.52,6.4a.49.49,0,0,0,.61.37l4.18-1a.52.52,0,0,0,.38-.61l-1.54-6.47a.51.51,0,0,1,.35-.6q6.31-1.95,9.34-5.7,3.56-4.41,2.06-10.7A10.52,10.52,0,0,0,281.44,311.42Zm-10.36-10.84a5.62,5.62,0,0,1-1.09,5.17,10.36,10.36,0,0,1-5.72,3.09l-7.71,1.83a.51.51,0,0,1-.61-.38l-2.75-11.56a.51.51,0,0,1,.38-.61l7.65-1.81q4.29-1,6.68,0C269.5,296.93,270.56,298.37,271.08,300.58ZM275.76,325a9.78,9.78,0,0,1-5.73,3.27l-8.81,2.09a.51.51,0,0,1-.61-.38l-3.08-13a.52.52,0,0,1,.38-.61l9.5-2.25q7.71-1.68,9.37,5.29A6.32,6.32,0,0,1,275.76,325Z" fill="#fff"/><path d="M330.26,414.6v14.28a2.9,2.9,0,0,1-2.85,2.94H209.57a2.89,2.89,0,0,1-2.84-2.94V414.6a2.9,2.9,0,0,1,2.84-3H327.41A2.9,2.9,0,0,1,330.26,414.6Z" fill="#3165D4"/><path d="M330.26,414.6v14.28a2.9,2.9,0,0,1-2.85,2.94H209.57a2.89,2.89,0,0,1-2.84-2.94V414.6a2.9,2.9,0,0,1,2.84-3H327.41A2.9,2.9,0,0,1,330.26,414.6Z" fill="#fff" opacity="0.4"/><rect x="206.73" y="414.78" width="123.53" height="13.25" fill="#2f2e41"/><rect x="214.69" y="414.78" width="3.56" height="13.24" fill="#3165D4"/><rect x="226.2" y="414.78" width="3.56" height="13.24" fill="#3165D4"/><rect x="237.7" y="414.78" width="3.56" height="13.24" fill="#3165D4"/><rect x="249.21" y="414.78" width="3.56" height="13.24" fill="#3165D4"/><rect x="260.71" y="414.78" width="3.56" height="13.24" fill="#3165D4"/><rect x="272.22" y="414.78" width="3.56" height="13.24" fill="#3165D4"/><rect x="283.73" y="414.78" width="3.56" height="13.24" fill="#3165D4"/><rect x="295.23" y="414.78" width="3.56" height="13.24" fill="#3165D4"/><rect x="306.74" y="414.78" width="3.56" height="13.24" fill="#3165D4"/><rect x="318.24" y="414.78" width="3.56" height="13.24" fill="#3165D4"/><path d="M347.27,394.42V408.7a2.9,2.9,0,0,1-2.84,2.95H226.58a2.9,2.9,0,0,1-2.84-2.95V394.42a2.9,2.9,0,0,1,2.84-2.95H344.43A2.9,2.9,0,0,1,347.27,394.42Z" fill="#3165D4"/><path d="M347.27,394.42V408.7a2.9,2.9,0,0,1-2.84,2.95H226.58a2.9,2.9,0,0,1-2.84-2.95V394.42a2.9,2.9,0,0,1,2.84-2.95H344.43A2.9,2.9,0,0,1,347.27,394.42Z" fill="#fff" opacity="0.2"/><rect x="223.74" y="394.6" width="123.53" height="13.25" fill="#2f2e41"/><rect x="231.7" y="394.61" width="3.56" height="13.24" fill="#3165D4"/><rect x="243.21" y="394.61" width="3.56" height="13.24" fill="#3165D4"/><rect x="254.71" y="394.61" width="3.56" height="13.24" fill="#3165D4"/><rect x="266.22" y="394.61" width="3.56" height="13.24" fill="#3165D4"/><rect x="277.73" y="394.61" width="3.56" height="13.24" fill="#3165D4"/><rect x="289.23" y="394.61" width="3.56" height="13.24" fill="#3165D4"/><rect x="300.74" y="394.61" width="3.56" height="13.24" fill="#3165D4"/><rect x="312.24" y="394.61" width="3.56" height="13.24" fill="#3165D4"/><rect x="323.75" y="394.61" width="3.56" height="13.24" fill="#3165D4"/><rect x="335.26" y="394.61" width="3.56" height="13.24" fill="#3165D4"/><path d="M325.48,376.89v14.27a2.9,2.9,0,0,1-2.85,2.95H204.79a2.9,2.9,0,0,1-2.84-2.95V376.89a2.9,2.9,0,0,1,2.84-2.95H322.63A2.9,2.9,0,0,1,325.48,376.89Z" fill="#3165D4"/><path d="M325.48,376.89v14.27a2.9,2.9,0,0,1-2.85,2.95H204.79a2.9,2.9,0,0,1-2.84-2.95V376.89a2.9,2.9,0,0,1,2.84-2.95H322.63A2.9,2.9,0,0,1,325.48,376.89Z" fill="#fff" opacity="0.4"/><rect x="201.95" y="377.07" width="123.53" height="13.25" fill="#2f2e41"/><rect x="209.91" y="377.07" width="3.56" height="13.24" fill="#3165D4"/><rect x="221.42" y="377.07" width="3.56" height="13.24" fill="#3165D4"/><rect x="232.92" y="377.07" width="3.56" height="13.24" fill="#3165D4"/><rect x="244.43" y="377.07" width="3.56" height="13.24" fill="#3165D4"/><rect x="255.93" y="377.07" width="3.56" height="13.24" fill="#3165D4"/><rect x="267.44" y="377.07" width="3.56" height="13.24" fill="#3165D4"/><rect x="278.95" y="377.07" width="3.56" height="13.24" fill="#3165D4"/><rect x="290.45" y="377.07" width="3.56" height="13.24" fill="#3165D4"/><rect x="301.96" y="377.07" width="3.56" height="13.24" fill="#3165D4"/><rect x="313.46" y="377.07" width="3.56" height="13.24" fill="#3165D4"/><path d="M342.49,356.71V371a2.9,2.9,0,0,1-2.84,2.95H221.8A2.9,2.9,0,0,1,219,371V356.71a2.9,2.9,0,0,1,2.84-2.95H339.65A2.9,2.9,0,0,1,342.49,356.71Z" fill="#3165D4"/><path d="M342.49,356.71V371a2.9,2.9,0,0,1-2.84,2.95H221.8A2.9,2.9,0,0,1,219,371V356.71a2.9,2.9,0,0,1,2.84-2.95H339.65A2.9,2.9,0,0,1,342.49,356.71Z" fill="#fff" opacity="0.2"/><rect x="218.96" y="356.89" width="123.53" height="13.25" fill="#2f2e41"/><rect x="226.92" y="356.89" width="3.56" height="13.24" fill="#3165D4"/><rect x="238.43" y="356.89" width="3.56" height="13.24" fill="#3165D4"/><rect x="249.93" y="356.89" width="3.56" height="13.24" fill="#3165D4"/><rect x="261.44" y="356.89" width="3.56" height="13.24" fill="#3165D4"/><rect x="272.95" y="356.89" width="3.56" height="13.24" fill="#3165D4"/><rect x="284.45" y="356.89" width="3.56" height="13.24" fill="#3165D4"/><rect x="295.96" y="356.89" width="3.56" height="13.24" fill="#3165D4"/><rect x="307.46" y="356.89" width="3.56" height="13.24" fill="#3165D4"/><rect x="318.97" y="356.89" width="3.56" height="13.24" fill="#3165D4"/><rect x="330.48" y="356.89" width="3.56" height="13.24" fill="#3165D4"/><path d="M252.63,415.54a49.17,49.17,0,0,1-.95,25.82,46.15,46.15,0,0,1-3.06,7.59,49.24,49.24,0,0,1-10.93,14.38c-.71.66-1.45,1.29-2.2,1.9a47.79,47.79,0,0,1-7.57,5,47.05,47.05,0,0,1-9.41,3.89c-1,.29-1.94.55-2.92.78a49.47,49.47,0,0,1-57.84-64.64,48.82,48.82,0,0,1,4.66-9.72,46,46,0,0,1,4.39-6,38.83,38.83,0,0,1,2.74-3,49,49,0,0,1,13.58-9.56A48.33,48.33,0,0,1,191,379.1c.74-.23,1.49-.42,2.24-.59A49.49,49.49,0,0,1,252.63,415.54Z" fill="#3165D4"/><circle cx="204.42" cy="426.71" r="43.55" transform="translate(-266.41 379.98) rotate(-58.73)" fill="#2f2e41"/><circle cx="204.42" cy="426.71" r="41.24" transform="translate(-168.39 135.36) rotate(-26.39)" fill="#3165D4"/><g opacity="0.2"><path d="M243.71,439.24a41.24,41.24,0,1,1-66.15-43.82,41.24,41.24,0,0,0,66.15,43.82Z"/></g><path d="M224.41,424.84a10.49,10.49,0,0,0-5.57-2.19.5.5,0,0,1-.27-.89,11,11,0,0,0,3.25-4.23,9.47,9.47,0,0,0,.48-5.95c-1-4-3.09-6.68-6.42-8a18.77,18.77,0,0,0-9.75-.74.51.51,0,0,1-.57-.38L204,396a.49.49,0,0,0-.61-.37l-4.18,1a.52.52,0,0,0-.38.61l1.5,6.29a.52.52,0,0,1-.38.61l-3.2.76a.51.51,0,0,1-.61-.38l-1.49-6.29a.5.5,0,0,0-.61-.37l-4.19,1a.52.52,0,0,0-.38.61l1.5,6.29a.52.52,0,0,1-.38.61l-12.43,3a.51.51,0,0,0-.38.61l1.16,4.88a.5.5,0,0,0,.61.37l7.52-1.78a.5.5,0,0,1,.61.37l7.59,31.95a.51.51,0,0,1-.38.61l-7.52,1.79a.51.51,0,0,0-.38.61l1.16,4.88a.5.5,0,0,0,.61.37L201.23,451a.5.5,0,0,1,.61.37l1.51,6.39a.51.51,0,0,0,.61.38l4.19-1a.52.52,0,0,0,.38-.61L207,450.15a.49.49,0,0,1,.37-.61l3.2-.76a.49.49,0,0,1,.61.37l1.52,6.39a.52.52,0,0,0,.61.38l4.19-1a.49.49,0,0,0,.37-.61l-1.53-6.47a.51.51,0,0,1,.34-.6q6.33-2,9.35-5.7,3.54-4.41,2.05-10.69A10.43,10.43,0,0,0,224.41,424.84ZM214.06,414a5.58,5.58,0,0,1-1.1,5.17,10.27,10.27,0,0,1-5.71,3.09l-7.72,1.84a.52.52,0,0,1-.61-.38l-2.74-11.56a.5.5,0,0,1,.37-.61l7.65-1.82q4.31-1,6.69,0T214.06,414Zm4.67,24.39a9.76,9.76,0,0,1-5.72,3.28l-8.81,2.09a.52.52,0,0,1-.61-.38l-3.08-13a.51.51,0,0,1,.38-.61l9.5-2.26q7.71-1.66,9.37,5.3A6.3,6.3,0,0,1,218.73,438.38Z" fill="#fff"/><path d="M383.91,378.32a49.17,49.17,0,0,1-1,25.82,46.15,46.15,0,0,1-3.06,7.59A49.24,49.24,0,0,1,369,426.11c-.71.66-1.45,1.28-2.2,1.9a47.06,47.06,0,0,1-7.57,5,46.5,46.5,0,0,1-9.41,3.9c-1,.29-1.94.55-2.92.78A49.47,49.47,0,0,1,289,373.06a48.82,48.82,0,0,1,4.66-9.72,46.78,46.78,0,0,1,4.39-6c.86-1,1.78-2,2.74-3a49,49,0,0,1,13.58-9.56,47.45,47.45,0,0,1,7.89-3c.74-.22,1.49-.41,2.24-.59A49.5,49.5,0,0,1,383.91,378.32Z" fill="#3165D4"/><circle cx="335.7" cy="389.49" r="43.55" transform="translate(-19.59 17.79) rotate(-2.95)" fill="#2f2e41"/><circle cx="335.7" cy="389.49" r="41.24" transform="translate(-68.13 71.18) rotate(-11)" fill="#3165D4"/><g opacity="0.2"><path d="M375,402a41.24,41.24,0,1,1-66.15-43.82A41.24,41.24,0,0,0,375,402Z"/></g><path d="M355.69,387.62a10.49,10.49,0,0,0-5.57-2.19.5.5,0,0,1-.27-.89,11,11,0,0,0,3.25-4.23,9.47,9.47,0,0,0,.48-5.95q-1.43-6-6.42-8a18.77,18.77,0,0,0-9.75-.74.51.51,0,0,1-.57-.38l-1.53-6.44a.49.49,0,0,0-.61-.37l-4.18,1a.51.51,0,0,0-.38.61l1.5,6.29a.52.52,0,0,1-.38.61l-3.2.76a.51.51,0,0,1-.61-.38L326,361a.5.5,0,0,0-.61-.37l-4.19,1a.52.52,0,0,0-.38.61l1.5,6.29a.52.52,0,0,1-.38.61l-12.43,2.95a.51.51,0,0,0-.38.61l1.16,4.88a.5.5,0,0,0,.61.37l7.52-1.78a.5.5,0,0,1,.61.37l7.59,32a.51.51,0,0,1-.38.61l-7.52,1.79a.51.51,0,0,0-.38.61l1.16,4.87a.51.51,0,0,0,.61.38l12.44-3a.5.5,0,0,1,.61.37l1.51,6.39a.51.51,0,0,0,.61.38l4.19-1a.52.52,0,0,0,.38-.61l-1.52-6.4a.5.5,0,0,1,.37-.61l3.21-.76a.5.5,0,0,1,.6.38l1.52,6.39a.52.52,0,0,0,.61.38l4.19-1a.49.49,0,0,0,.37-.61l-1.53-6.47a.51.51,0,0,1,.34-.6q6.33-1.95,9.35-5.7,3.54-4.41,2.05-10.7A10.41,10.41,0,0,0,355.69,387.62Zm-10.35-10.85a5.58,5.58,0,0,1-1.1,5.17,10.33,10.33,0,0,1-5.71,3.09l-7.72,1.83a.5.5,0,0,1-.61-.37l-2.74-11.56a.5.5,0,0,1,.37-.61l7.65-1.82q4.31-1,6.69,0T345.34,376.77ZM350,401.16a9.7,9.7,0,0,1-5.72,3.27l-8.81,2.1a.52.52,0,0,1-.61-.38l-3.08-13a.51.51,0,0,1,.38-.61l9.5-2.26q7.71-1.67,9.37,5.29A6.32,6.32,0,0,1,350,401.16Z" fill="#fff"/><path d="M365.21,452.69V467a2.9,2.9,0,0,1-2.84,2.95H244.53a2.9,2.9,0,0,1-2.85-2.95V452.69a2.9,2.9,0,0,1,2.85-2.95H362.37A2.9,2.9,0,0,1,365.21,452.69Z" fill="#3165D4"/><path d="M365.21,452.69V467a2.9,2.9,0,0,1-2.84,2.95H244.53a2.9,2.9,0,0,1-2.85-2.95V452.69a2.9,2.9,0,0,1,2.85-2.95H362.37A2.9,2.9,0,0,1,365.21,452.69Z" fill="#fff" opacity="0.4"/><rect x="241.68" y="452.88" width="123.53" height="13.25" fill="#2f2e41"/><rect x="249.64" y="452.88" width="3.56" height="13.24" fill="#3165D4"/><rect x="261.15" y="452.88" width="3.56" height="13.24" fill="#3165D4"/><rect x="272.66" y="452.88" width="3.56" height="13.24" fill="#3165D4"/><rect x="284.16" y="452.88" width="3.56" height="13.24" fill="#3165D4"/><rect x="295.67" y="452.88" width="3.56" height="13.24" fill="#3165D4"/><rect x="307.18" y="452.88" width="3.56" height="13.24" fill="#3165D4"/><rect x="318.68" y="452.88" width="3.56" height="13.24" fill="#3165D4"/><rect x="330.19" y="452.88" width="3.56" height="13.24" fill="#3165D4"/><rect x="341.69" y="452.88" width="3.56" height="13.24" fill="#3165D4"/><rect x="353.2" y="452.88" width="3.56" height="13.24" fill="#3165D4"/><path d="M382.23,432.52v14.27a2.9,2.9,0,0,1-2.85,2.95H261.54a2.9,2.9,0,0,1-2.84-2.95V432.52a2.9,2.9,0,0,1,2.84-2.95H379.38A2.9,2.9,0,0,1,382.23,432.52Z" fill="#3165D4"/><path d="M382.23,432.52v14.27a2.9,2.9,0,0,1-2.85,2.95H261.54a2.9,2.9,0,0,1-2.84-2.95V432.52a2.9,2.9,0,0,1,2.84-2.95H379.38A2.9,2.9,0,0,1,382.23,432.52Z" fill="#fff" opacity="0.2"/><rect x="258.7" y="432.7" width="123.53" height="13.25" fill="#2f2e41"/><rect x="266.66" y="432.7" width="3.56" height="13.24" fill="#3165D4"/><rect x="278.16" y="432.7" width="3.56" height="13.24" fill="#3165D4"/><rect x="289.67" y="432.7" width="3.56" height="13.24" fill="#3165D4"/><rect x="301.18" y="432.7" width="3.56" height="13.24" fill="#3165D4"/><rect x="312.68" y="432.7" width="3.56" height="13.24" fill="#3165D4"/><rect x="324.19" y="432.7" width="3.56" height="13.24" fill="#3165D4"/><rect x="335.69" y="432.7" width="3.56" height="13.24" fill="#3165D4"/><rect x="347.2" y="432.7" width="3.56" height="13.24" fill="#3165D4"/><rect x="358.71" y="432.7" width="3.56" height="13.24" fill="#3165D4"/><rect x="370.21" y="432.7" width="3.56" height="13.24" fill="#3165D4"/><path d="M296.13,379.82l9.06,11a2.91,2.91,0,0,1-.33,4.09l-91.11,74.73a2.9,2.9,0,0,1-4.07-.47l-9.06-11a2.91,2.91,0,0,1,.33-4.09l91.11-74.73A2.89,2.89,0,0,1,296.13,379.82Z" fill="#3165D4"/><path d="M296.13,379.82l9.06,11a2.91,2.91,0,0,1-.33,4.09l-91.11,74.73a2.9,2.9,0,0,1-4.07-.47l-9.06-11a2.91,2.91,0,0,1,.33-4.09l91.11-74.73A2.89,2.89,0,0,1,296.13,379.82Z" fill="#fff" opacity="0.2"/><rect x="190.93" y="417.63" width="123.53" height="13.25" transform="translate(-211.75 256.5) rotate(-39.36)" fill="#2f2e41"/><rect x="210.69" y="450.63" width="3.56" height="13.24" transform="translate(-241.8 238.47) rotate(-39.36)" fill="#3165D4"/><rect x="219.59" y="443.33" width="3.56" height="13.24" transform="translate(-235.15 242.46) rotate(-39.36)" fill="#3165D4"/><rect x="228.48" y="436.04" width="3.56" height="13.24" transform="translate(-228.5 246.45) rotate(-39.36)" fill="#3165D4"/><rect x="237.38" y="428.74" width="3.56" height="13.24" transform="translate(-221.86 250.44) rotate(-39.36)" fill="#3165D4"/><rect x="246.28" y="421.44" width="3.56" height="13.24" transform="translate(-215.21 254.42) rotate(-39.36)" fill="#3165D4"/><rect x="255.17" y="414.14" width="3.56" height="13.24" transform="translate(-208.57 258.4) rotate(-39.36)" fill="#3165D4"/><rect x="264.07" y="406.85" width="3.56" height="13.24" transform="translate(-201.92 262.39) rotate(-39.36)" fill="#3165D4"/><rect x="272.96" y="399.55" width="3.56" height="13.24" transform="translate(-195.27 266.38) rotate(-39.36)" fill="#3165D4"/><rect x="281.86" y="392.25" width="3.56" height="13.24" transform="translate(-188.63 270.37) rotate(-39.36)" fill="#3165D4"/><rect x="290.76" y="384.95" width="3.56" height="13.24" transform="translate(-181.98 274.36) rotate(-39.36)" fill="#3165D4"/><path d="M529.81,227.73c-4.22,5.57-6.46,5.37-6.46,5.37L511.6,228l-1.43-.61-25.11-10.84h0c-.11-.37-5.66-17.85-.1-27.28,7.19-4.67,23.69-12.37,43-1.6h0c2.89,3.67,2.62,7.6.49,11.1h0c.25,0,7.78.92,8.36,8.11S534,222.17,529.81,227.73Z" fill="#2f2e41"/><path d="M487,204a63.25,63.25,0,0,0-1.4,25c2.16,12.85,10.37,16,13.75,17.21a15.72,15.72,0,0,0,6.27.84l-1,6.83s-6,12.75,5.51,13.52a20.62,20.62,0,0,0,17.57-7.84s-4.77-15.33-4.7-20.94.79-11.2,1.87-12.24,3,.86,5-3.26-1.62-9-4.12-9-5.18,10.65-6.29,10.64-2.87-.31-2.3-1.92,2.18-5.56,1.64-6.53-6.38-5.35-8.41-8.49a16,16,0,0,1-2.31-4.55s-3.16,2.52-10.43,2.29S487,204,487,204Z" fill="#f9b499"/><path d="M505.66,247.09s2.85.2,6.23-3.17S519,232,519,232a30.2,30.2,0,0,1-4,13.49,18.41,18.41,0,0,1-10.29,8.46Z" fill="#f7a48b"/><path d="M595.48,375.42,422.09,417.16a6.61,6.61,0,0,0-3.58,2.23L323.28,535.1a19.19,19.19,0,0,1-6.41,5l-111,53.71a6.19,6.19,0,0,1-7.67-1.88,5.43,5.43,0,0,1-.61-1,6.21,6.21,0,0,1,2.88-8.28l95.34-46.14L311.47,529a6.71,6.71,0,0,0,2.24-1.75l12-14.56,81.82-99.4,1.44-1.75a19.15,19.15,0,0,1,10.25-6.41l.14,0,173.24-41.71a6.2,6.2,0,0,1,7.48,4.58c.05.2.09.41.12.61A6.2,6.2,0,0,1,595.48,375.42Z" fill="#bcbec0"/><path d="M451.49,393.86s-10.37,7.25-10.59,10,15.78,9.24,17.52,5a110.39,110.39,0,0,0,3.51-10.87Z" fill="#f9b499"/><path d="M487.17,265.5s-14.26,14.78-15.76,25.18-3.4,59.11-7.1,65.31-16.6,33.42-17.71,38.1,13,11.09,18.79,4.79,33-59.83,33-59.83Z" fill="#3165D4"/><path d="M487.17,265.5s-14.26,14.78-15.76,25.18-3.4,59.11-7.1,65.31-16.6,33.42-17.71,38.1,13,11.09,18.79,4.79,33-59.83,33-59.83Z" opacity="0.2" style="isolation:isolate"/><path d="M457,591.35s-3.41,23.91-2.72,24.77,16.9,1.17,17.09-.57,3.6-21.11,3.6-21.11Z" fill="#f9b499"/><path d="M485.47,369.5s-7.45,39.3-9.79,50.16-18.24,115.08-21,142.09-4.14,32.27-2.56,33.07,24.1,4.47,24.85,3.31,21.5-94.89,24.49-107.64,21.48-81.75,24.18-96.18S494.25,348.63,485.47,369.5Z" fill="#2f2e41"/><path d="M560,597.78s2.65,7.79,3.46,11.31,1.59,6.28,1.59,6.28,5.18-.36,7.92-.31,6.93.28,7-.9-2.3-18.44-2.3-18.44Z" fill="#f9b499"/><path d="M580.78,596.34a87.09,87.09,0,0,1-10.14,2.32l-1,.18c-.74.14-1.49.26-2.23.38-4.87.8-9.32,1.24-9.87.44-1.21-1.79-37.36-107.25-39-120.13s-9-52.47-10.84-63.62-5.23-36-5.23-36,20.94-5.44,35.18-6c6.65-.25,11.83.56,12.75,3.49,0,0,6,13.95,7.51,41.67s-4.25,63.11-2.91,69.18,6.68,19.8,13.44,46S582.24,595.62,580.78,596.34Z" fill="#2f2e41"/><path d="M582.4,625.44c-.11,1.61-30.16,3.23-30.16,3.23s-9.49,1.62-11.41.38a2.08,2.08,0,0,1-.87-1.74,5.23,5.23,0,0,1,4.09-4.86c3.82-.93,9.37-3.44,12.06-6s5.12-4.64,7.6-4.29,8.13.67,11.49-.68,5-2.52,5.82.12c.57,1.85,1.07,7.14,1.28,10.68C582.39,623.77,582.43,625,582.4,625.44Z" fill="#3165D4"/><path d="M582.4,625.44c-.11,1.61-30.16,3.23-30.16,3.23s-9.49,1.62-11.41.38a2.08,2.08,0,0,1-.87-1.74,42.43,42.43,0,0,0,8-.14c5.68-.69,15-2.62,22.09-2.89,5.14-.19,9.73-1,12.29-2C582.39,623.77,582.43,625,582.4,625.44Z" fill="#2f2e41"/><path d="M473.62,628.72c-.27,1.75-31.15.08-31.15.08s-9.86.69-11.7-.89a2.38,2.38,0,0,1-.71-2,5.51,5.51,0,0,1,4.67-4.82c4-.58,9.93-2.68,12.93-5.18s5.71-4.47,8.21-3.8,8.24,1.65,11.81.57,5.38-2.18,5.94.79c.39,2.08.37,7.91.23,11.79C473.79,626.9,473.7,628.2,473.62,628.72Z" fill="#3165D4"/><path d="M473.62,628.72c-.27,1.75-31.15.08-31.15.08s-9.86.69-11.7-.89a2.38,2.38,0,0,1-.71-2,41.41,41.41,0,0,0,8.15.77c5.87-.11,15.62-1.15,22.87-.63,5.27.38,10,0,12.77-.79C473.79,626.9,473.7,628.2,473.62,628.72Z" fill="#2f2e41"/><g opacity="0.2" style="isolation:isolate"><path d="M580.78,596.34a107.66,107.66,0,0,1-13.36,2.88c.55-23.31-15.92-80.68-20.91-94.15-6.21-16.78-6.94-27.66-4.28-44.64S537,383.77,537,383.77a85.46,85.46,0,0,1,.66-9.79c6.65-.25,11.83.56,12.74,3.49,0,0,6,13.95,7.52,41.67s-4.25,63.11-2.91,69.18,6.68,19.8,13.44,46S582.24,595.62,580.78,596.34Z"/></g><path d="M553.38,377.5c-4.23,9-64.29,4.47-69.2,1.63-.67-.38-1.12-2.65-1.41-6.32-1.85-23.41,3.15-103.49,4.4-107.31,1.44-4.41,17.52-12.52,17.52-12.52s-1.55,8.51,4.42,8.14,16.55-11.34,16.55-11.34l25.43,10A143.36,143.36,0,0,1,554.55,288a70,70,0,0,1-1.17,14.23C549.78,320.27,557.62,368.54,553.38,377.5Z" fill="#3165D4"/><path d="M553.38,377.5c-4.23,9-64.29,4.47-69.2,1.63-.67-.38-1.12-2.65-1.41-6.32h48.06a55.51,55.51,0,0,0,9.44-19.48c2.76-11.22-2.76-23.91-7-40.74s0-34.54,0-34.54l21.24,10a70,70,0,0,1-1.17,14.23C549.78,320.27,557.62,368.54,553.38,377.5Z" opacity="0.2" style="isolation:isolate"/><circle cx="213.43" cy="598.93" r="29.42" fill="#a7a9ac"/><circle cx="213.43" cy="598.93" r="16.03" fill="#fff"/><path d="M388.37,471.56v60.75a14.62,14.62,0,0,1-2.37,8l-9.19,14.08A14.6,14.6,0,0,1,364.57,561h-159a14.6,14.6,0,0,1-13-7.85l-38.84-74.33L149.21,470l17.32.11,194.18,1.25Z" fill="#bcbec0"/><g opacity="0.53"><path d="M388.37,471.56v60.75a14.62,14.62,0,0,1-2.37,8l-9.19,14.08A14.6,14.6,0,0,1,364.57,561h-159a14.6,14.6,0,0,1-13-7.85l-38.84-74.33L149.21,470l17.32.11,43.62,74.94h69.18l81.38-73.69Z" fill="#a7a9ac"/></g><rect x="142.22" y="456.51" width="256.39" height="15.06" rx="3.04" fill="#a7a9ac"/><path d="M602.43,388.19,429,429.93a6.77,6.77,0,0,0-3.58,2.23L330.23,547.87a19.15,19.15,0,0,1-6.4,5l-111,53.71a6.19,6.19,0,0,1-7.67-1.88,5.93,5.93,0,0,1-.61-1,6.2,6.2,0,0,1,2.88-8.28l95.35-46.15,15.62-7.56a6.61,6.61,0,0,0,2.24-1.76l12-14.56L414.46,426l1.43-1.74a19.09,19.09,0,0,1,10.25-6.41l.14,0,173.25-41.7a6.21,6.21,0,0,1,7.48,4.57c0,.21.08.41.11.62A6.2,6.2,0,0,1,602.43,388.19Z" fill="#d1d3d4"/><polygon points="382.84 483.96 382.84 603.05 360.62 603.05 327.11 567.21 321.35 561.04 334.85 560.98 364.87 593.31 373.1 593.31 373.1 495.79 382.84 483.96" fill="#d1d3d4"/><polygon points="382.84 483.96 382.84 506.98 380.18 508.76 380.18 595.99 361.86 595.99 336.94 567.21 327.11 567.21 321.35 561.04 334.85 560.98 364.87 593.31 373.1 593.31 373.1 495.79 382.84 483.96" fill="#a7a9ac"/><path d="M602.43,388.19,429,429.93a6.77,6.77,0,0,0-3.58,2.23L330.23,547.87a19.15,19.15,0,0,1-6.4,5l-111,53.71a6.19,6.19,0,0,1-7.67-1.88l99.31-48.38-1.69-7.05,15.62-7.56a6.61,6.61,0,0,0,2.24-1.76l12-14.56,4.3,6.35,79.83-99.35-2.31-6.4,1.43-1.74a19.09,19.09,0,0,1,10.25-6.41l.14,0,5.79,5.19,175.05-41.7A6.2,6.2,0,0,1,602.43,388.19Z" fill="#bcbec0"/><circle cx="321.98" cy="546.06" r="10.29" fill="#bcbec0"/><path d="M545,380.05s-9,8.71-11.46,9.74-7,4.72-8,9.45-1.92,8.29-1.18,8.35,1.61,1.22,2.07,0,1.77-5.56,1.77-5.56-.15,5.58.29,6.12,2.07.34,2.51,0,1.33-6.12,1.33-6.12-.12,6.1,1,6.45,2.58,2.08,3.46-.89,1.92-5.56,1.92-5.56l13.87-4c4.14-5.6,3.87-9.59,3.87-9.59Z" fill="#f9b499"/><path d="M587.25,328.68a75.66,75.66,0,0,1-2.94,18.38C579,366.37,568,385.42,563.56,391.7c-5.87,8.33-18.15-2.54-22.36-6.87S562.9,342.7,562,330.39s-25.68-38.17-28.43-50.12,16.74-20.92,16.74-20.92c4.82-2.72,30.89,35.6,36,60.95A38.93,38.93,0,0,1,587.25,328.68Z" fill="#3165D4"/><path d="M587.25,328.68a75.66,75.66,0,0,1-2.94,18.38,15.49,15.49,0,0,1,2.06-26.76A38.93,38.93,0,0,1,587.25,328.68Z" opacity="0.2" style="isolation:isolate"/><path d="M549,389.15l-1.17-.62c.24-.46,24.12-45.72,23.25-61.51S540,266.7,539.72,266.25l1.1-.75c1.25,1.84,30.71,45.29,31.6,61.45S550,387.28,549,389.15Z" opacity="0.2" style="isolation:isolate"/><path d="M480.83,199.82s-1.15-24.8,17.58-28,37.32,4.42,41.31,21.84-3,30.45-6.2,28.1-14.35-14.05-25.4-18.42S480.83,199.82,480.83,199.82Z" fill="#3165D4"/><path d="M527.87,176.81s-16.64,1.46-21.36,13l-4.72,11.52L490.9,200s-2.71-9.88,5.12-20.51,7.88-12.4,11.69-12.4S532.39,173.28,527.87,176.81Z" fill="#3165D4"/><path d="M527.87,176.81s-16.64,1.46-21.36,13l-4.72,11.52L490.9,200s-2.71-9.88,5.12-20.51,7.88-12.4,11.69-12.4S532.39,173.28,527.87,176.81Z" opacity="0.2" style="isolation:isolate"/><path d="M480.83,199.82s-7.63,5-5.63,6.2,45.49,4.8,45.49,4.8A50.85,50.85,0,0,0,480.83,199.82Z" fill="#3165D4"/><path d="M480.83,199.82s-7.63,5-5.63,6.2,45.49,4.8,45.49,4.8A50.85,50.85,0,0,0,480.83,199.82Z" fill="#fff" opacity="0.5" style="isolation:isolate"/></svg>